<svg width="172" height="172" viewBox="0 0 172 172" fill="none" xmlns="http://www.w3.org/2000/svg">
<path fill-rule="evenodd" clip-rule="evenodd" d="M107.28 29.6373C114.476 32.4848 116.678 42.4015 119.621 45.589C122.563 48.7765 126.774 49.8602 129.104 49.8602C141.487 49.8602 151.526 59.8406 151.526 72.1444V113.192C151.526 129.696 138.06 143.084 121.459 143.084H49.7815C33.1731 143.084 19.714 129.696 19.714 113.192V72.1444C19.714 59.8406 29.7531 49.8602 42.1364 49.8602C44.4591 49.8602 48.67 48.7765 51.6197 45.589C54.5624 42.4015 56.7569 32.4848 63.9531 29.6373C71.1565 26.7898 100.084 26.7898 107.28 29.6373Z" stroke="#0650AF" stroke-width="8" stroke-linecap="round" stroke-linejoin="round"/>
<path d="M124.774 68.2323H124.838" stroke="#0650AF" stroke-width="8" stroke-linecap="round" stroke-linejoin="round"/>
<path fill-rule="evenodd" clip-rule="evenodd" d="M108.268 93.9306C108.268 81.4923 98.1295 71.4127 85.618 71.4127C73.1065 71.4127 62.9677 81.4923 62.9677 93.9306C62.9677 106.369 73.1065 116.449 85.618 116.449C98.1295 116.449 108.268 106.369 108.268 93.9306Z" stroke="#0650AF" stroke-width="8" stroke-linecap="round" stroke-linejoin="round"/>
</svg>
